<mxfile host="app.diagrams.net" modified="2022-10-15T18:08:21.311Z" agent="5.0 (Macintosh; Intel Mac OS X 10_15_7) AppleWebKit/537.36 (KHTML, like Gecko) Chrome/106.0.0.0 Safari/537.36" etag="__-zh2NNk2W3mF8PSwL_" version="20.4.0" type="github">
  <diagram name="Page-1" id="5f0bae14-7c28-e335-631c-24af17079c00">
    <mxGraphModel dx="988" dy="540" grid="1" gridSize="10" guides="1" tooltips="1" connect="1" arrows="1" fold="1" page="1" pageScale="1" pageWidth="1100" pageHeight="850" background="none" math="0" shadow="0">
      <root>
        <mxCell id="0" />
        <mxCell id="1" parent="0" />
        <mxCell id="ioL2Q2ArwekZ2DOm_wSJ-22" style="edgeStyle=orthogonalEdgeStyle;rounded=0;orthogonalLoop=1;jettySize=auto;html=1;exitX=0;exitY=0;exitDx=125;exitDy=0;exitPerimeter=0;entryX=0.481;entryY=1;entryDx=0;entryDy=0;entryPerimeter=0;endArrow=none;endFill=0;" edge="1" parent="1" source="39150e848f15840c-1" target="ioL2Q2ArwekZ2DOm_wSJ-9">
          <mxGeometry relative="1" as="geometry" />
        </mxCell>
        <mxCell id="39150e848f15840c-1" value="&amp;lt;&amp;lt;Настільний комп&#39;ютер&amp;gt;&amp;gt;" style="verticalAlign=top;align=center;spacingTop=8;spacingLeft=2;spacingRight=12;shape=cube;size=10;direction=south;fontStyle=4;html=1;rounded=0;shadow=0;comic=0;labelBackgroundColor=none;strokeWidth=1;fontFamily=Verdana;fontSize=12" parent="1" vertex="1">
          <mxGeometry x="20" y="37.5" width="260" height="260" as="geometry" />
        </mxCell>
        <mxCell id="39150e848f15840c-6" value="" style="ellipse;whiteSpace=wrap;html=1;rounded=0;shadow=0;comic=0;labelBackgroundColor=none;strokeWidth=1;fontFamily=Verdana;fontSize=12;align=center;" parent="1" vertex="1">
          <mxGeometry x="80" y="330" width="20" height="20" as="geometry" />
        </mxCell>
        <mxCell id="39150e848f15840c-14" style="edgeStyle=elbowEdgeStyle;rounded=0;html=1;labelBackgroundColor=none;startArrow=none;startFill=0;startSize=8;endArrow=none;endFill=0;endSize=16;fontFamily=Verdana;fontSize=12;" parent="1" source="39150e848f15840c-6" edge="1">
          <mxGeometry relative="1" as="geometry">
            <mxPoint x="90.11111111111109" y="297.5" as="targetPoint" />
          </mxGeometry>
        </mxCell>
        <mxCell id="ioL2Q2ArwekZ2DOm_wSJ-2" value="&amp;lt;&amp;lt;ОС Windows&amp;gt;&amp;gt;" style="verticalAlign=top;align=center;spacingTop=8;spacingLeft=2;spacingRight=12;shape=cube;size=10;direction=south;fontStyle=4;html=1;rounded=0;shadow=0;comic=0;labelBackgroundColor=none;strokeWidth=1;fontFamily=Verdana;fontSize=12" vertex="1" parent="1">
          <mxGeometry x="30" y="77.5" width="220" height="210" as="geometry" />
        </mxCell>
        <mxCell id="ioL2Q2ArwekZ2DOm_wSJ-3" value="&amp;lt;&amp;lt;Веб-навігатор&amp;gt;&amp;gt;" style="verticalAlign=top;align=center;spacingTop=8;spacingLeft=2;spacingRight=12;shape=cube;size=10;direction=south;fontStyle=4;html=1;rounded=0;shadow=0;comic=0;labelBackgroundColor=none;strokeWidth=1;fontFamily=Verdana;fontSize=12" vertex="1" parent="1">
          <mxGeometry x="40" y="115" width="190" height="160" as="geometry" />
        </mxCell>
        <mxCell id="ioL2Q2ArwekZ2DOm_wSJ-4" value="&lt;div style=&quot;text-align: center;&quot;&gt;&lt;span style=&quot;background-color: initial;&quot;&gt;*js&lt;/span&gt;&lt;/div&gt;(Angular)" style="shape=component;align=left;spacingLeft=36;rounded=0;shadow=0;comic=0;labelBackgroundColor=none;strokeWidth=1;fontFamily=Verdana;fontSize=12;html=1;" vertex="1" parent="1">
          <mxGeometry x="65" y="177.5" width="120" height="60" as="geometry" />
        </mxCell>
        <mxCell id="ioL2Q2ArwekZ2DOm_wSJ-5" value="" style="ellipse;whiteSpace=wrap;html=1;rounded=0;shadow=0;comic=0;labelBackgroundColor=none;strokeWidth=1;fontFamily=Verdana;fontSize=12;align=center;" vertex="1" parent="1">
          <mxGeometry x="180" y="330" width="20" height="20" as="geometry" />
        </mxCell>
        <mxCell id="ioL2Q2ArwekZ2DOm_wSJ-6" style="edgeStyle=elbowEdgeStyle;rounded=0;html=1;labelBackgroundColor=none;startArrow=none;startFill=0;startSize=8;endArrow=none;endFill=0;endSize=16;fontFamily=Verdana;fontSize=12;" edge="1" parent="1" source="ioL2Q2ArwekZ2DOm_wSJ-5">
          <mxGeometry relative="1" as="geometry">
            <mxPoint x="190.1111111111111" y="297.5" as="targetPoint" />
          </mxGeometry>
        </mxCell>
        <mxCell id="ioL2Q2ArwekZ2DOm_wSJ-7" value="Клавіатура&amp;nbsp;" style="text;html=1;strokeColor=none;fillColor=none;align=center;verticalAlign=middle;whiteSpace=wrap;rounded=0;" vertex="1" parent="1">
          <mxGeometry x="60" y="350" width="60" height="30" as="geometry" />
        </mxCell>
        <mxCell id="ioL2Q2ArwekZ2DOm_wSJ-8" value="Маніпулятор миша" style="text;html=1;strokeColor=none;fillColor=none;align=center;verticalAlign=middle;whiteSpace=wrap;rounded=0;" vertex="1" parent="1">
          <mxGeometry x="160" y="350" width="60" height="30" as="geometry" />
        </mxCell>
        <mxCell id="ioL2Q2ArwekZ2DOm_wSJ-24" style="edgeStyle=orthogonalEdgeStyle;rounded=0;orthogonalLoop=1;jettySize=auto;html=1;exitX=0;exitY=0;exitDx=125;exitDy=0;exitPerimeter=0;entryX=0.48;entryY=0.999;entryDx=0;entryDy=0;entryPerimeter=0;startArrow=none;startFill=0;endArrow=none;endFill=0;" edge="1" parent="1" source="ioL2Q2ArwekZ2DOm_wSJ-9" target="ioL2Q2ArwekZ2DOm_wSJ-15">
          <mxGeometry relative="1" as="geometry" />
        </mxCell>
        <mxCell id="ioL2Q2ArwekZ2DOm_wSJ-9" value="&amp;lt;&amp;lt;сервер 1&amp;gt;&amp;gt;" style="verticalAlign=top;align=center;spacingTop=8;spacingLeft=2;spacingRight=12;shape=cube;size=10;direction=south;fontStyle=4;html=1;rounded=0;shadow=0;comic=0;labelBackgroundColor=none;strokeWidth=1;fontFamily=Verdana;fontSize=12" vertex="1" parent="1">
          <mxGeometry x="320" y="37.5" width="260" height="260" as="geometry" />
        </mxCell>
        <mxCell id="ioL2Q2ArwekZ2DOm_wSJ-10" value="&amp;lt;&amp;lt;ОС Linux&amp;gt;&amp;gt;" style="verticalAlign=top;align=center;spacingTop=8;spacingLeft=2;spacingRight=12;shape=cube;size=10;direction=south;fontStyle=4;html=1;rounded=0;shadow=0;comic=0;labelBackgroundColor=none;strokeWidth=1;fontFamily=Verdana;fontSize=12" vertex="1" parent="1">
          <mxGeometry x="330" y="77.5" width="220" height="210" as="geometry" />
        </mxCell>
        <mxCell id="ioL2Q2ArwekZ2DOm_wSJ-11" value="&amp;lt;&amp;lt;Node.js&amp;gt;&amp;gt;" style="verticalAlign=top;align=center;spacingTop=8;spacingLeft=2;spacingRight=12;shape=cube;size=10;direction=south;fontStyle=4;html=1;rounded=0;shadow=0;comic=0;labelBackgroundColor=none;strokeWidth=1;fontFamily=Verdana;fontSize=12" vertex="1" parent="1">
          <mxGeometry x="340" y="115" width="190" height="160" as="geometry" />
        </mxCell>
        <mxCell id="ioL2Q2ArwekZ2DOm_wSJ-12" value="&lt;div style=&quot;&quot;&gt;&lt;span style=&quot;background-color: initial;&quot;&gt;*js&lt;/span&gt;&lt;/div&gt;" style="shape=component;align=center;spacingLeft=36;rounded=0;shadow=0;comic=0;labelBackgroundColor=none;strokeWidth=1;fontFamily=Verdana;fontSize=12;html=1;" vertex="1" parent="1">
          <mxGeometry x="365" y="177.5" width="120" height="60" as="geometry" />
        </mxCell>
        <mxCell id="ioL2Q2ArwekZ2DOm_wSJ-13" value="" style="endArrow=none;dashed=1;html=1;dashPattern=1 3;strokeWidth=2;rounded=0;" edge="1" parent="1">
          <mxGeometry width="50" height="50" relative="1" as="geometry">
            <mxPoint x="300" y="357.5" as="sourcePoint" />
            <mxPoint x="300" y="7.5" as="targetPoint" />
          </mxGeometry>
        </mxCell>
        <mxCell id="ioL2Q2ArwekZ2DOm_wSJ-15" value="&amp;lt;&amp;lt;сервер 2&amp;gt;&amp;gt;" style="verticalAlign=top;align=center;spacingTop=8;spacingLeft=2;spacingRight=12;shape=cube;size=10;direction=south;fontStyle=4;html=1;rounded=0;shadow=0;comic=0;labelBackgroundColor=none;strokeWidth=1;fontFamily=Verdana;fontSize=12" vertex="1" parent="1">
          <mxGeometry x="620" y="37.5" width="260" height="260" as="geometry" />
        </mxCell>
        <mxCell id="ioL2Q2ArwekZ2DOm_wSJ-16" value="&amp;lt;&amp;lt;ОС Linux&amp;gt;&amp;gt;" style="verticalAlign=top;align=center;spacingTop=8;spacingLeft=2;spacingRight=12;shape=cube;size=10;direction=south;fontStyle=4;html=1;rounded=0;shadow=0;comic=0;labelBackgroundColor=none;strokeWidth=1;fontFamily=Verdana;fontSize=12" vertex="1" parent="1">
          <mxGeometry x="630" y="77.5" width="220" height="210" as="geometry" />
        </mxCell>
        <mxCell id="ioL2Q2ArwekZ2DOm_wSJ-17" value="&amp;lt;&amp;lt;Database Server &lt;br&gt;PostgreSQL&amp;gt;&amp;gt;" style="verticalAlign=top;align=center;spacingTop=8;spacingLeft=2;spacingRight=12;shape=cube;size=10;direction=south;fontStyle=4;html=1;rounded=0;shadow=0;comic=0;labelBackgroundColor=none;strokeWidth=1;fontFamily=Verdana;fontSize=12" vertex="1" parent="1">
          <mxGeometry x="640" y="115" width="190" height="160" as="geometry" />
        </mxCell>
        <mxCell id="ioL2Q2ArwekZ2DOm_wSJ-19" value="" style="endArrow=none;dashed=1;html=1;dashPattern=1 3;strokeWidth=2;rounded=0;" edge="1" parent="1">
          <mxGeometry width="50" height="50" relative="1" as="geometry">
            <mxPoint x="600" y="357.5" as="sourcePoint" />
            <mxPoint x="600" y="7.5" as="targetPoint" />
          </mxGeometry>
        </mxCell>
        <mxCell id="ioL2Q2ArwekZ2DOm_wSJ-20" value="Relation &lt;br&gt;Database" style="shape=cylinder3;whiteSpace=wrap;html=1;boundedLbl=1;backgroundOutline=1;size=15;" vertex="1" parent="1">
          <mxGeometry x="680" y="177.5" width="110" height="70" as="geometry" />
        </mxCell>
      </root>
    </mxGraphModel>
  </diagram>
</mxfile>
